<svg t="1758621597373" class="icon" viewBox="0 0 1024 1024" version="1.1" xmlns="http://www.w3.org/2000/svg" p-id="10357" width="200" height="200"><path d="M289.213573 708.215569a51.097804 51.097804 0 1 0 102.195609 0 51.097804 51.097804 0 1 0-102.195609 0Z" p-id="10358"></path><path d="M632.590818 708.215569a51.097804 51.097804 0 1 0 102.195609 0 51.097804 51.097804 0 1 0-102.195609 0Z" p-id="10359"></path><path d="M981.077844 464.99002c-9.197605-152.271457-76.646707-190.083832-76.646706-190.083832s21.461078-26.570858 37.812375-13.28543c0 0 3.065868-60.295409-84.822355-39.856287 0 0-7.153693-92.998004-53.141717-96.063872 0 0 2.043912 20.439122-29.636726 32.702595 0 0-51.097804-59.273453-177.82036-54.163673-56.207585 2.043912-167.600798-80.734531-167.600798-100.151697 0 0-83.800399-8.175649-58.251497 85.844312 0 0-76.646707 2.043912-113.437126-38.834332 0 0-78.690619 13.285429-42.922156 116.502994 0 0-104.239521 14.307385-111.393213 71.536927 0 0 28.61477 14.307385 23.50499 28.61477 0 0-76.646707 55.185629-84.822355 183.952096-4.087824 61.317365 6.131737 115.481038 23.50499 162.491018-28.61477 27.592814-31.680639 78.690619-4.087825 121.612774 21.461078 33.724551 55.185629 53.141717 86.866268 53.141717 7.153693 0 15.329341-1.021956 21.461078-3.065868C215.632735 922.826347 351.552894 1024 512 1024s296.367265-101.173653 341.333333-239.137725c7.153693 2.043912 14.307385 3.065868 21.461078 3.065869 31.680639 0 65.40519-19.417166 86.866268-53.141717 27.592814-43.944112 24.526946-96.063872-5.109781-122.63473 17.373253-44.966068 28.61477-94.01996 24.526946-147.161677zM96.063872 712.303393c-12.263473-19.417166-15.329341-39.856287-11.241517-55.185629 18.39521 35.768463 38.834331 66.427146 58.251497 88.91018-14.307385-1.021956-33.724551-12.263473-47.00998-33.724551zM818.586826 757.269461c-34.746507 128.766467-159.42515 224.830339-306.586826 224.830339s-271.840319-96.063872-306.586826-224.830339c-6.131737-23.50499-9.197605-48.031936-9.197605-72.558882 0-13.285429 1.021956-25.548902 3.065868-38.834331-1.021956-1.021956-1.021956-2.043912-2.043912-3.065869 0-1.021956 1.021956-2.043912 1.021956-3.065868 0 0 56.207585-13.285429 38.834331-91.976048 0 0 109.349301 16.351297 133.876248-23.50499 0 0 7.153693 50.075848-59.273453 76.646707 0 0 152.271457 47.00998 248.335329-27.592815 0 0 4.087824 15.329341-6.131736 25.548902 0 0 119.568862 9.197605 207.457085-64.383233 0 0 7.153693 77.668663 36.79042 108.327345 13.285429 13.285429 23.50499 38.834331 28.61477 66.427146-1.021956 17.373253-4.087824 32.702595-8.175649 48.031936z m109.349302-44.966068c-14.307385 22.483034-35.768463 33.724551-51.097805 34.746507 19.417166-24.526946 41.9002-55.185629 60.29541-91.976048 6.131737 14.307385 4.087824 36.790419-9.197605 57.229541z" p-id="10360"></path></svg>

